<svg width="680" height="520" viewBox="0 0 680 520" xmlns="http://www.w3.org/2000/svg">
  <defs>
    <linearGradient id="bgGradient" x1="0" y1="0" x2="1" y2="1">
      <stop offset="0%" stop-color="#E3EEFF" />
      <stop offset="100%" stop-color="#D1F3FF" />
    </linearGradient>
    <linearGradient id="accent" x1="0" y1="0" x2="1" y2="1">
      <stop offset="0%" stop-color="#2563EB" />
      <stop offset="100%" stop-color="#38BDF8" />
    </linearGradient>
  </defs>
  <rect width="680" height="520" rx="48" fill="url(#bgGradient)" />
  <path d="M60 410 C120 340 180 360 240 310 C320 240 360 120 470 120 C550 120 640 190 640 260 C640 360 540 420 470 430 C390 440 280 520 200 500 C140 484 100 450 60 410 Z" fill="#FFFFFF" fill-opacity="0.7" />
  <g filter="url(#shadow)">
    <rect x="120" y="120" width="440" height="280" rx="32" fill="#FFFFFF" />
  </g>
  <rect x="140" y="150" width="180" height="70" rx="18" fill="url(#accent)" opacity="0.12" />
  <rect x="140" y="240" width="400" height="18" rx="9" fill="#2563EB" opacity="0.18" />
  <rect x="140" y="270" width="320" height="18" rx="9" fill="#2563EB" opacity="0.12" />
  <rect x="140" y="300" width="360" height="18" rx="9" fill="#2563EB" opacity="0.1" />
  <rect x="360" y="150" width="180" height="120" rx="26" fill="#E6F1FF" />
  <rect x="380" y="172" width="140" height="76" rx="18" fill="#FFFFFF" stroke="#BED4FF" stroke-width="2" />
  <circle cx="150" cy="360" r="36" fill="#2563EB" opacity="0.12" />
  <circle cx="220" cy="360" r="28" fill="#2563EB" opacity="0.18" />
  <circle cx="290" cy="360" r="20" fill="#2563EB" opacity="0.25" />
  <path d="M412 210 L438 180 L468 210" stroke="#2563EB" stroke-width="6" stroke-linecap="round" stroke-linejoin="round" fill="none" />
  <path d="M420 220 L420 250" stroke="#2563EB" stroke-width="6" stroke-linecap="round" />
  <path d="M458 220 L458 250" stroke="#2563EB" stroke-width="6" stroke-linecap="round" />
  <ellipse cx="438" cy="266" rx="42" ry="12" fill="#BFD8FF" />
  <g opacity="0.25">
    <circle cx="520" cy="340" r="20" fill="#38BDF8" />
    <circle cx="560" cy="360" r="16" fill="#38BDF8" />
  </g>
</svg>
