<svg width="520" height="360" viewBox="0 0 520 360" xmlns="http://www.w3.org/2000/svg">
  <defs>
    <linearGradient id="supportGradient" x1="0" y1="0" x2="1" y2="1">
      <stop offset="0%" stop-color="#DDF3FF" />
      <stop offset="100%" stop-color="#F0F7FF" />
    </linearGradient>
  </defs>
  <rect width="520" height="360" rx="40" fill="url(#supportGradient)" />
  <path d="M40 280 C80 230 140 240 200 210 C270 175 330 120 420 150 C470 168 480 220 460 260 C430 320 330 320 260 320 C190 320 120 340 70 320 Z" fill="#FFFFFF" opacity="0.9" />
  <g transform="translate(120 110)">
    <rect width="280" height="160" rx="30" fill="#FFFFFF" stroke="#C5DBFF" stroke-width="2" />
    <circle cx="60" cy="80" r="36" fill="#2563EB" opacity="0.15" />
    <circle cx="140" cy="80" r="36" fill="#2563EB" opacity="0.12" />
    <circle cx="220" cy="80" r="36" fill="#2563EB" opacity="0.18" />
    <path d="M50 86 C58 70 82 70 90 86" stroke="#1E40AF" stroke-width="4" stroke-linecap="round" />
    <path d="M130 86 C138 70 162 70 170 86" stroke="#1E40AF" stroke-width="4" stroke-linecap="round" />
    <path d="M210 86 C218 70 242 70 250 86" stroke="#1E40AF" stroke-width="4" stroke-linecap="round" />
    <path d="M103 120 H 177" stroke="#1E40AF" stroke-width="4" stroke-linecap="round" />
  </g>
  <circle cx="420" cy="110" r="34" fill="#38BDF8" opacity="0.3" />
  <circle cx="430" cy="120" r="18" fill="#38BDF8" />
  <path d="M438 110 L442 114 L430 126 L422 118" fill="#FFFFFF" stroke="#FFFFFF" stroke-width="1.5" stroke-linecap="round" stroke-linejoin="round" />
</svg>
